<svg xmlns="http://www.w3.org/2000/svg" viewBox="0 0 413 415" width="36" height="36"><path d="M87.3,387.66H76.48a10.09,10.09,0,0,0-1.57-.55c-18.78-3.28-28.84-16.61-27.11-35.59,1.23-13.6,6.93-25,16.34-34.69a6.68,6.68,0,0,0,2.09-5.93c-1.58-17.26-3.48-34.51-4.41-51.81a813.77,813.77,0,0,1,4.42-141,5.84,5.84,0,0,0-1.81-5.37c-9.75-9.86-15.78-21.61-16.63-35.59-1-16.45,5.9-30.55,24.4-34.4,16.69-3.47,31.4,1.37,44.53,11.62a8.86,8.86,0,0,0,7.37,2,546,546,0,0,1,69-5.06,569.09,569.09,0,0,1,85.24,5.13,7.25,7.25,0,0,0,6.14-1.68c10.78-8.73,23.07-13.4,37.07-13.08,21.3.48,34.48,15.53,32.31,36.56-1.4,13.58-7.15,25-16.61,34.57a6,6,0,0,0-1.78,5.38c1.55,17.15,3.46,34.29,4.39,51.48a813.55,813.55,0,0,1-4.41,141.64,5.85,5.85,0,0,0,1.94,5.31c9.63,9.82,15.59,21.47,16.51,35.31,1,15.22-4.89,29.15-21.58,33.88-2.36.67-4.74,1.25-7.11,1.87H314.42a9.11,9.11,0,0,0-1.57-.54,55.07,55.07,0,0,1-28-12.36,8.29,8.29,0,0,0-7.08-1.84,555.74,555.74,0,0,1-75,5.12A560.58,560.58,0,0,1,124,372.92a8.18,8.18,0,0,0-7.08,1.85,55.26,55.26,0,0,1-20.48,10.7C93.41,386.35,90.33,386.94,87.3,387.66ZM83.33,64c-11.09-.05-14.41,3.69-13.1,13.34,1.27,9.42,6,16.93,13.36,22.67,4.69,3.66,6.41,8,5.66,13.84a776.1,776.1,0,0,0-6.19,88.57A791.64,791.64,0,0,0,89.19,315c.77,6-.76,10.63-5.71,14.46A33.55,33.55,0,0,0,70.2,352.13c-1.25,9.45,2.06,13.3,11.62,13.17s17.75-4,24.34-10.82c3.9-4,8.15-5.32,13.66-4.69,16.44,1.85,32.89,3.79,49.39,4.89A528.33,528.33,0,0,0,280.4,350c6.16-.89,11,.07,15.56,4.78a32.82,32.82,0,0,0,25.13,10.5c8.33-.19,11.56-4.07,10.6-12.31-1.16-10-6-17.86-13.78-23.91-4.5-3.51-6.15-7.72-5.44-13.26a789,789,0,0,0,6.21-88.91A790.23,790.23,0,0,0,312.77,116c-.91-7.25.57-12.41,6.5-17a32.38,32.38,0,0,0,12.49-23.5C332.4,68,329.41,64.56,322,64c-.45,0-.9,0-1.35,0-10.15,0-18.56,4.15-25.52,11.29a13.31,13.31,0,0,1-12.15,4.3c-7.91-1.11-15.85-2.06-23.79-2.9a553.73,553.73,0,0,0-138.47,2.71c-5.79.84-10.43-.23-14.64-4.65A33.49,33.49,0,0,0,83.33,64Z"/><path d="M212.06,157.8c9.6-5.46,19.52-6.16,29.65-5.87a42.22,42.22,0,0,1,.72-4.58A11,11,0,0,1,254,139.41c5.27.38,10,4.22,10.09,9.61.1,14.06-.14,28.13-.95,42.16-.26,4.53-2.71,8.93-4.31,13.83,5,2.77,5.84,7.9,5.54,13.59-.44,8.19.23,16.57-1.32,24.54-4,20.32-21.74,34.5-42.42,34.93-2.68.06-5.37,0-8.55,0,0,5.3,0,10.32,0,15.33,0,3.66-.93,6.94-3.79,9.39a10.63,10.63,0,0,1-11.35,2.08c-4.1-1.58-6.69-4.65-7-9.11-.29-4-.15-8.1-.19-12.15,0-1.67,0-3.35,0-5.26-4.6-.24-9-.22-13.25-.74a44.19,44.19,0,0,1-39-43.44c-.1-5.86.06-11.72-.06-17.57-.1-5,1.41-9.08,6-11.81-9.29-17.52-5.22-36.39-5.79-54.74-.2-6.26,5.11-10.76,11.19-10.7s10.41,4.36,11,10.61c0,.45.08.9.17,1.82,10,.06,20.16.32,29.85,6.13,0-5.43-.12-10.12,0-14.79.19-6,3.89-10.28,9.36-11.08,6.43-.94,12.05,3.16,12.7,9.62.39,3.9.18,7.87.23,11.81C212.07,154.67,212.06,155.87,212.06,157.8Zm-22.79,46.25c3.64-19.29-10.11-33-29.13-29.38C157.28,192.13,167.25,206.66,189.27,204.05Zm23.16-.1c21.38,2.94,32.26-11.49,29.12-29.35C222.06,171.53,209.26,184.34,212.43,204Zm-52.31,22.19c-3.18,19.46,10,32.59,29.2,29.28C192.29,237.08,181.42,223.19,160.12,226.14Zm52.26,29.33c21.54,2.92,32.31-11.68,29.16-29.32C221.84,223.2,209.55,235.46,212.38,255.47Z"/></svg>