<svg width="26" height="23" viewBox="0 0 26 23" xmlns="http://www.w3.org/2000/svg">
                            <path d="M23 2.75H19L16.75 0.25H9.25L7 2.75H3C1.625 2.75 0.5 3.875 0.5 5.25V20.25C0.5 21.625 1.625 22.75 3 22.75H23C24.375 22.75 25.5 21.625 25.5 20.25V5.25C25.5 3.875 24.375 2.75 23 2.75ZM23 20.25H13V19C9.5 19 6.75 16.25 6.75 12.75C6.75 9.25 9.5 6.5 13 6.5V5.25H23V20.25ZM19.25 12.75C19.25 9.25 16.5 6.5 13 6.5V8.75C15.25 8.75 17 10.5 17 12.75C17 15 15.25 16.75 13 16.75V19C16.5 19 19.25 16.25 19.25 12.75ZM9 12.75C9 15 10.75 16.75 13 16.75V8.75C10.75 8.75 9 10.5 9 12.75Z" fill="#7c8898"/>
                        </svg>