<svg width="24" height="24" viewBox="0 0 30 31" xmlns="http://www.w3.org/2000/svg">
                            <path d="M16.5 0.5V5.05639C21.585 5.79323 25.5 10.1541 25.5 15.4624C25.5 16.8158 25.23 18.094 24.78 19.282L28.68 21.5827C29.52 19.718 30 17.6429 30 15.4624C30 7.67293 24.075 1.25188 16.5 0.5ZM15 25.9887C9.195 25.9887 4.5 21.282 4.5 15.4624C4.5 10.1541 8.415 5.79323 13.5 5.05639V0.5C5.91 1.25188 0 7.65789 0 15.4624C0 23.7632 6.705 30.5 14.985 30.5C19.95 30.5 24.345 28.0789 27.075 24.3496L23.175 22.0489C21.255 24.4549 18.315 25.9887 15 25.9887Z" fill="#7c8898"/>
                            <path d="M14.9275 14.5842C14.9275 14.2211 15.2238 13.924 15.586 13.924C15.9482 13.924 16.2445 14.2211 16.2445 14.5842V19.2055H14.9275V14.5842ZM20.8543 16.5648C20.4921 16.5648 20.1958 16.8619 20.1958 17.225V20.5259H10.9763V11.2833H14.2689C14.6311 11.2833 14.9275 10.9862 14.9275 10.6231C14.9275 10.26 14.6311 9.96292 14.2689 9.96292H10.9763C10.2519 9.96292 9.65918 10.5571 9.65918 11.2833V20.5259C9.65918 21.2521 10.2519 21.8463 10.9763 21.8463H20.1958C20.9202 21.8463 21.5128 21.2521 21.5128 20.5259V17.225C21.5128 16.8619 21.2165 16.5648 20.8543 16.5648ZM21.5128 11.2833H20.1958V9.96292C20.1958 9.59982 19.8994 9.30273 19.5372 9.30273C19.175 9.30273 18.8787 9.59982 18.8787 9.96292V11.2833H17.5616C17.1994 11.2833 16.9031 11.5804 16.9031 11.9435C16.9031 12.3066 17.1994 12.6037 17.5616 12.6037H18.8787V13.924C18.8787 14.2871 19.175 14.5842 19.5372 14.5842C19.8994 14.5842 20.1958 14.2871 20.1958 13.924V12.6037H21.5128C21.875 12.6037 22.1714 12.3066 22.1714 11.9435C22.1714 11.5804 21.875 11.2833 21.5128 11.2833ZM18.2202 16.5648C17.858 16.5648 17.5616 16.8619 17.5616 17.225V19.2055H18.8787V17.225C18.8787 16.8619 18.5824 16.5648 18.2202 16.5648ZM12.2933 15.9046V19.2055H13.6104V15.9046C13.6104 15.5415 13.3141 15.2444 12.9519 15.2444C12.5897 15.2444 12.2933 15.5415 12.2933 15.9046Z" fill="#7c8898"/>
                        </svg>