<svg width="24" height="24" viewBox="0 0 28 23" xmlns="http://www.w3.org/2000/svg">
                            <path d="M14 0.25L0.25 10.75L1.7625 12.7375L4 11.025V22.75H24V11.025L26.2375 12.725L27.75 10.75L14 0.25ZM21.5 20.25H6.5V9.125L14 3.4L21.5 9.125V20.25ZM10.25 14C10.25 14.6875 9.6875 15.25 9 15.25C8.3125 15.25 7.75 14.6875 7.75 14C7.75 13.3125 8.3125 12.75 9 12.75C9.6875 12.75 10.25 13.3125 10.25 14ZM14 12.75C14.6875 12.75 15.25 13.3125 15.25 14C15.25 14.6875 14.6875 15.25 14 15.25C13.3125 15.25 12.75 14.6875 12.75 14C12.75 13.3125 13.3125 12.75 14 12.75ZM17.75 14C17.75 13.3125 18.3125 12.75 19 12.75C19.6875 12.75 20.25 13.3125 20.25 14C20.25 14.6875 19.6875 15.25 19 15.25C18.3125 15.25 17.75 14.6875 17.75 14Z" fill="#7c8898"/>
                        </svg>