<svg xmlns="http://www.w3.org/2000/svg" viewBox="0 0 60 60" width="36" height="36"><path d="M57.64,2.37H51.92a1.15,1.15,0,0,1-1.3-1A1.09,1.09,0,0,1,51.44.11,3.06,3.06,0,0,1,52.18,0h6.19C59.57,0,60,.44,60,1.62V8.06a2.8,2.8,0,0,1,0,.5,1.14,1.14,0,0,1-1.22,1.08,1.13,1.13,0,0,1-1.1-1.2c0-.83,0-1.67,0-2.5Z"/><path d="M57.64,57.63V52.14a6.26,6.26,0,0,1,0-.75,1.14,1.14,0,0,1,1.08-1,1.09,1.09,0,0,1,1.18.89,2.58,2.58,0,0,1,.07.68v6.43c0,1.2-.42,1.6-1.62,1.6H52.19a2.6,2.6,0,0,1-.56,0,1.16,1.16,0,0,1,.1-2.31c.68,0,1.37,0,2.06,0Z"/><path d="M2.35,2.37V7.91a4.33,4.33,0,0,1-.07.8,1.08,1.08,0,0,1-1.15.92,1.12,1.12,0,0,1-1.1-1,4.19,4.19,0,0,1,0-.5V1.52C0,.44.43,0,1.52,0H8.2a1.21,1.21,0,0,1,1.19,1.2,1.17,1.17,0,0,1-1.3,1.14c-1.66,0-3.33,0-5,0Z"/><path d="M2.35,57.63H7.72a3.09,3.09,0,0,1,.74,0,1.09,1.09,0,0,1,.92,1.11,1.07,1.07,0,0,1-.88,1.13,2.55,2.55,0,0,1-.67.07H1.58C.41,60,0,59.58,0,58.42V51.86a2.56,2.56,0,0,1,.05-.62,1.11,1.11,0,0,1,1.14-.87,1.05,1.05,0,0,1,1.08.85,4.27,4.27,0,0,1,.08.87Z"/><path d="M7.05,6.94H21.34V21.26H7.05ZM10,9.83v8.53h8.53V9.83Z"/><path d="M7.05,38.44H21.37V52.76H7.05ZM10,41.32v8.53h8.53V41.32Z"/><path d="M24.24,52.76V49.91h5.7V41.32H24.26V38.46H32.8V47h5.73v2.85h-5.7v2.89Z"/><path d="M7.05,24.12H9.9v5.72h2.85v2.87H9.93v2.87H7.05Z"/><path d="M41.42,52.76V44.2H50V47h-5.7v5.75Z"/><path d="M47.14,52.76V49.92h5.73v2.84Z"/><path d="M38.57,21.23V7H52.83V21.23ZM50,18.39V9.84H41.45v8.55Z"/><path d="M29.94,35.56H24.26V32.75H18.52v2.81H15.67v-5.7h2.81v-5.7h2.88v5.68h5.71v2.87h2.85Z"/><path d="M44.27,24.15V27h2.87v-2.8h5.7V27H50v2.84H38.58V27H41.4V24.15Z"/><path d="M35.67,12.65v2.87H32.84v2.85H30V15.55H24.27V9.83h2.8v2.82Z"/><path d="M32.84,24.14V21.29h2.82V27H24.26V24.14Z"/><path d="M44.25,41.28H41.42V35.59H38.57V32.74h5.67Z"/><path d="M30,9.78V7h5.68V9.78Z"/><path d="M32.86,29.87h2.81v5.67H32.86Z"/><path d="M47.16,35.55V32.74h5.67v2.81Z"/><path d="M38.52,44.15h-2.8V38.48h2.81Z"/><path d="M27.06,21.24h-2.8V18.42h2.8Z"/><path d="M15.63,24.15V27H12.81v-2.8Z"/><path d="M50,38.45h2.8v2.83H50Z"/><path d="M24.25,47V44.19h2.83V47Z"/><path d="M12.79,15.49V12.7h2.82v2.79Z"/><path d="M12.79,47V44.2h2.82V47Z"/><path d="M47.12,15.51H44.3v-2.8h2.82Z"/></svg>