<svg xmlns="http://www.w3.org/2000/svg" viewBox="0 0 60 60" width="36" height="36"><path d="M60,55.2c-.06.14-.12.28-.17.42a3.73,3.73,0,0,1-3.48,2.6c-3.87,0-7.73,0-11.6,0a2,2,0,1,1-.14-4.07H55.88v-11a2.05,2.05,0,0,1,2.3-2.25A2.2,2.2,0,0,1,60,42.43Z"/><path d="M60,17.58a2.21,2.21,0,0,1-1.77,1.51,2.05,2.05,0,0,1-2.3-2.25v-11H44.72a2,2,0,0,1-1.88-1.16,1.9,1.9,0,0,1,.21-2.09,2,2,0,0,1,1.67-.82c3.85,0,7.69,0,11.53,0a3.73,3.73,0,0,1,3.53,2.6c0,.14.12.28.17.42Z"/><path d="M34.51,32.41A16.33,16.33,0,0,1,46.64,48H13.3C13,43,16.44,35,25.44,32.39a10.78,10.78,0,0,1-5.73-6.59,10.44,10.44,0,0,1,.08-6.56A10.73,10.73,0,1,1,34.51,32.41Z"/><path d="M4,5.85v8.29C4,15.08,4,16,4,17A2,2,0,0,1,1.9,19.1,2,2,0,0,1,0,16.91V5.61A3.73,3.73,0,0,1,3.75,1.77c3.79,0,7.57,0,11.35,0a2.06,2.06,0,0,1,2.17,2.05,2.07,2.07,0,0,1-2.2,2H4Z"/><path d="M4,54.15h11.2a2,2,0,0,1,2,1.7A2,2,0,0,1,16,58a2.83,2.83,0,0,1-1,.19H3.78A3.74,3.74,0,0,1,0,54.36V43.12A2,2,0,0,1,2,40.9a2,2,0,0,1,2,2.23v11Z"/></svg>