<svg xmlns="http://www.w3.org/2000/svg" viewBox="0 0 60 60"><path d="M-.06,29.65a14.87,14.87,0,0,1,.87-1.44A53.46,53.46,0,0,1,15.84,15a28.71,28.71,0,0,1,12.52-4,25.43,25.43,0,0,1,11.86,2.15A44.75,44.75,0,0,1,54.41,23c1.72,1.73,3.28,3.61,4.87,5.46a2.05,2.05,0,0,1,0,3A53.4,53.4,0,0,1,44.09,45a27.58,27.58,0,0,1-15.2,4.1,26.87,26.87,0,0,1-10.72-2.85A51.31,51.31,0,0,1,.53,31.42a6.84,6.84,0,0,1-.59-1.06ZM4.41,30c1.16,1.26,2.26,2.51,3.42,3.68A42.29,42.29,0,0,0,21,43.17a22.61,22.61,0,0,0,8,2,23.3,23.3,0,0,0,11.9-2.91,44.21,44.21,0,0,0,11.06-8.39c1.2-1.21,2.33-2.5,3.52-3.79-.22-.26-.37-.46-.55-.64-1.83-1.88-3.59-3.86-5.54-5.63A36.39,36.39,0,0,0,37,16.12a20.64,20.64,0,0,0-14.16,0,36.28,36.28,0,0,0-10.94,6.41A57.53,57.53,0,0,0,4.41,30Z"/><path d="M30,18.15A11.86,11.86,0,1,1,18.08,29.94,11.86,11.86,0,0,1,30,18.15Zm0,19.76A7.91,7.91,0,1,0,22,30,7.91,7.91,0,0,0,30,37.91Z"/></svg>