<svg xmlns="http://www.w3.org/2000/svg" viewBox="0 0 60 60" width="36" height="36"><defs>
<style>.a{fill:#fff;}</style></defs>
<path fill="#7c8898" d="M33.55,55.31H15.91c-5.26,0-10.16.51-11.85-3.15-1-2.09-.52-7-.52-10.4V19.9c0-7.16-.94-12.6,5.13-13.43a27.75,27.75,0,0,1,4-.13c.78,0,1.58,0,2.42,0v2.9a26.55,26.55,0,0,1-3.09,0c-2.3-.09-4.35-.17-5.2,1.18-1.09,1.72-.4,7.31-.4,10v20.8c0,3.22-.72,9.62,1.32,10.79,1.48.86,5.79.4,8.29.4H33.42c2.88,0,7.47.51,8.69-.92s.66-7.07.66-10V20.16c0-2.95.67-8.44-.66-10-.93-1.1-2.92-1-5-.92a23.25,23.25,0,0,1-3,0V6.34c5.8-.26,10-.12,11.32,3.95.76,2.34.13,7.46.13,10.27v20.8c0,3.64.48,7.5-.26,10-1.05,3.56-3.73,4-7.66,4C36.38,55.36,35,55.31,33.55,55.31Zm-24-9V40.57a.37.37,0,0,1,.27-.4h5.92a59.4,59.4,0,0,1,.13,6.32c-.78,0-1.61,0-2.45,0l-1.45,0A14,14,0,0,1,9.59,46.36Zm7.77-1.58c.09-.88-.17-2.1.13-2.76H39.21v2.76ZM9.59,35.17V29.38A.35.35,0,0,1,9.86,29h5.92a59.15,59.15,0,0,1,.13,6.31c-.78,0-1.61,0-2.44,0l-1.45,0A15.26,15.26,0,0,1,9.59,35.17Zm7.77-1.58c.09-.88-.17-2.1.13-2.76H39.21v2.76ZM9.59,23.85V18.06a.37.37,0,0,1,.27-.4h5.92A59.4,59.4,0,0,1,15.91,24c-.78,0-1.61,0-2.45,0L12,24A14,14,0,0,1,9.59,23.85Zm7.77-1.58c.09-.88-.17-2.1.13-2.76H39.21v2.76ZM16.31,12c.08-2.33-.17-5,.13-7.11H19.2c0-6.37,10.59-6.67,10.53,0h2.9c.3,2.11,0,4.78.13,7.11Zm5.26-7c.92-.06,1.84,0,2.72,0a23.89,23.89,0,0,0,3.21-.1,2.76,2.76,0,0,0-3-2.77,2.75,2.75,0,0,0-3,2.91Z"/><circle class="a" cx="37.47" cy="40.91" r="19.09"/><path fill="#7c8898" d="M29.83,52a2.82,2.82,0,0,1-2.44-2.4V35.2a2.81,2.81,0,0,1,2.44-2.39c1.62-.17,3.63,0,5.76,0H38.5a15.47,15.47,0,0,0,2.9,0c.44-.12,1-1,1.32-1.28A3.82,3.82,0,0,1,45,30.08h.68a3.69,3.69,0,0,1,2.22,1.45,3.47,3.47,0,0,1,1.37,2.13v.69c-.26,1-.91,2.34-2.18,2.26-.68,0-1.15-.68-1.62-1.15s-1.22-1-1.11-1.58a.61.61,0,0,1,.51-.56c.66-.09.86.48,1.24.86s.76,1,1.15.94.71-.74.64-1.33-.59-1-1-1.36c-.56-.56-.89-1.07-1.75-1s-1.3.88-1.71,1.29-1,1.32-1.54,1.45a18,18,0,0,1-3,0H32.82a11.36,11.36,0,0,0-2.91.08,1.87,1.87,0,0,0-1.07,1,13.46,13.46,0,0,0-.08,3.5V46c0,2-.36,4.15,1.24,4.57a16.23,16.23,0,0,0,3.5,0h7c2.09,0,4,.34,4.52-1.11A8.67,8.67,0,0,0,45.16,47v-5c0-.57.17-2.12-.17-2.31s-1.12.74-1.33.94l-1.15,1.16c-1,1-1.75,2.28-3.2,2.52-.86.14-3.14.24-3.8-.17s-.6-1.14-.6-2.35a7.77,7.77,0,0,1,.17-2.31A4.27,4.27,0,0,1,36.23,38c.27-.27.93-1.23,1.58-1.11a.8.8,0,0,1,.52.51c.1.56-.61,1-.94,1.37a4,4,0,0,0-1,1.24,4.47,4.47,0,0,0,0,2.18c.31.84,1.62,1.12,2.86.81.57-.14,1.09-.83,1.5-1.24l2.69-2.69c.4-.4.9-1.09,1.54-1.15,1.83-.19,1.58,1.65,1.58,3.5v5.72a13.2,13.2,0,0,1-.09,2.78,2.74,2.74,0,0,1-2.35,2ZM38.67,35.8a.6.6,0,0,1,.51-.56.68.68,0,1,1,.3,1.33h-.14A.63.63,0,0,1,38.67,35.8Z"/></svg>