<svg id="Layer_1" data-name="Layer 1" xmlns="http://www.w3.org/2000/svg" viewBox="0 0 24 24" width="70" height="70">
<path fill="#59b7f4" d="M17.75,2.25a4,4,0,1,0,4,4A4,4,0,0,0,17.75,2.25Zm1.85352,3.85352-1.5,1.5a.49984.49984,0,0,1-.707,0l-1.5-1.5a.5.5,0,0,1,.707-.707L17.75,6.543l1.14648-1.14649a.5.5,0,0,1,.707.707ZM7.75,13.25a1,1,0,1,1-1-1A1,1,0,0,1,7.75,13.25Zm9.5,0a.49971.49971,0,0,1-.5.5h-7a.5.5,0,0,1,0-1h7A.49971.49971,0,0,1,17.25,13.25Zm-9.5,4a1,1,0,1,1-1-1A1,1,0,0,1,7.75,17.25Zm9.5,0a.49971.49971,0,0,1-.5.5h-7a.5.5,0,0,1,0-1h7A.49971.49971,0,0,1,17.25,17.25Zm-15-12a2.50263,2.50263,0,0,1,2.5-2.5h8.13647a5.99411,5.99411,0,0,0-.5838,1H4.75a1.50164,1.50164,0,0,0-1.5,1.5v3.5h9.05267a5.99411,5.99411,0,0,0,.5838,1H3.25v9.5a1.50164,1.50164,0,0,0,1.5,1.5h14a1.50164,1.50164,0,0,0,1.5-1.5V11.69733a5.99411,5.99411,0,0,0,1-.5838V19.25a2.50263,2.50263,0,0,1-2.5,2.5h-14a2.50263,2.50263,0,0,1-2.5-2.5Z"/></svg>