<svg xmlns="http://www.w3.org/2000/svg" viewBox="0 0 60 60"><path d="M58.18,18.45,31.07.37,30.55,0H29.46L14.29,10.14C10.15,12.9,6,15.67,1.85,18.41A4.8,4.8,0,0,0,0,20.83L0,57l.06.13c.05.1.09.21.14.32a5.79,5.79,0,0,0,.41.83A3.74,3.74,0,0,0,3.66,60H56a3.78,3.78,0,0,0,4-3.15,4.64,4.64,0,0,0,.06-.92V45.2Q60,33.58,60,22A4,4,0,0,0,58.18,18.45ZM3.38,22.2A1.18,1.18,0,0,1,4,21.06Q16.94,12.48,29.84,3.84A.5.5,0,0,1,30,3.75a.5.5,0,0,1,.16.09Q43.11,12.5,56.08,21.12a1,1,0,0,1,.53,1q0,13.62,0,27.24v6.4c0,.78,0,.83-.82.83H53.7V26a3.79,3.79,0,0,0-3.09-4,4.94,4.94,0,0,0-.92-.07H10.31a3.76,3.76,0,0,0-4,4V56.59H6c-.76,0-1.5,0-2.23,0-.1,0-.28,0-.33-.41,0-.12,0-.23,0-.34V49.7Q3.39,35.95,3.38,22.2ZM47.84,43.62a4.15,4.15,0,0,0,.62-2.4V31.36a3.77,3.77,0,0,0-4.09-4.1H34.45a3.78,3.78,0,0,0-4.06,4.09v3.29q0,3.2,0,6.39A4.51,4.51,0,0,0,31,43.62a4.91,4.91,0,0,0-.65,2.8c0,1.87,0,3.75,0,5.62v4.52h-.78V46.28A4.18,4.18,0,0,0,29,43.63a5,5,0,0,0,.65-2.85c0-2.13,0-4.26,0-6.39v-3a3.82,3.82,0,0,0-4.09-4.12H15.6a3.78,3.78,0,0,0-4.06,4.07c0,1.31,0,2.61,0,3.91,0,1.93,0,3.85,0,5.78a4.43,4.43,0,0,0,.64,2.6,4.37,4.37,0,0,0-.64,2.57c0,1.9,0,3.8,0,5.71v3.74c0,.31,0,.61,0,.92H9.69V26.2c0-.75.06-.8.79-.8H49.55c.71,0,.76.1.76.71V56.56H48.46V51.17c0-1.65,0-3.3,0-5A4.59,4.59,0,0,0,47.84,43.62Zm-14.05,2.3c0-.47.07-.59.63-.59h10c.52,0,.62.05.62.65v10c0,.6-.12.66-.62.66h-10c-.55,0-.63-.12-.63-.6Q33.78,51,33.79,45.92Zm11.27-4.63c0,.56-.09.64-.63.64h-10c-.58,0-.67-.09-.67-.68V31.34c0-.62.07-.69.7-.69H44.4c.59,0,.66.07.66.67v10ZM14.94,49.46V46c0-.59.09-.64.62-.64h10c.53,0,.62.09.62.59q0,5,0,10.08c0,.47-.08.6-.63.6h-10c-.52,0-.61-.09-.61-.6V49.46Zm0-14.67V31.27c0-.53.08-.61.6-.62H25.62c.48,0,.58.09.58.57q0,5.07,0,10.14c0,.43-.08.56-.61.56H15.51c-.47,0-.57-.1-.57-.58V34.79Z"/><path d="M30,18.46H24c-1,0-1.32-.35-1.32-1.31,0-1.22,0-2.44,0-3.66a1.35,1.35,0,0,1,.65-1.25q3-2,6-4a1.19,1.19,0,0,1,1.48,0l5.95,4a1.33,1.33,0,0,1,.65,1.25c0,1.24,0,2.48,0,3.72,0,.88-.37,1.25-1.26,1.25Zm5.25-2.11c0-.75,0-1.44,0-2.12a1.05,1.05,0,0,0-.37-.68c-1.49-1-3-2-4.5-3a.56.56,0,0,0-.72,0c-1.51,1-3,2-4.55,3.06-.14.1-.32.28-.33.42,0,.77,0,1.55,0,2.35Z"/><path d="M23.71,35.26c.36,0,.72,0,1.08,0a1,1,0,0,1,.11,2.05,19.06,19.06,0,0,1-2.39,0,1,1,0,0,1-.88-1.08,1,1,0,0,1,1-1C23,35.24,23.35,35.26,23.71,35.26Z"/><path d="M23.68,40.46c-.36,0-.72,0-1.08,0a1,1,0,0,1-.06-2.06,20.12,20.12,0,0,1,2.33,0,1,1,0,0,1-.1,2.06c-.36,0-.73,0-1.09,0Z"/><path d="M23.69,49.93c.38,0,.76,0,1.14,0a1,1,0,0,1,0,2.06,22.83,22.83,0,0,1-2.34,0,1,1,0,0,1,.07-2.06C23,49.91,23.33,49.93,23.69,49.93Z"/><path d="M23.67,55.13c-.36,0-.72,0-1.08,0a1,1,0,0,1-1-1,1,1,0,0,1,.86-1.09,16.7,16.7,0,0,1,2.45,0,1,1,0,0,1,.84,1.1,1,1,0,0,1-1,.94H23.67Z"/><path d="M42.59,37.33c-.37,0-.73,0-1.09,0a1,1,0,0,1-1-1.09,1,1,0,0,1,1-1c.71,0,1.41,0,2.12,0a1,1,0,0,1,1,1,1,1,0,0,1-1,1c-.36,0-.72,0-1.08,0Z"/><path d="M42.56,40.46c-.37,0-.73,0-1.09,0a1,1,0,0,1-.07-2.06,22.64,22.64,0,0,1,2.33,0,1,1,0,0,1-.09,2.06c-.36,0-.72,0-1.08,0Z"/><path d="M42.57,52c-.36,0-.72,0-1.08,0a1,1,0,0,1-1-1,1,1,0,0,1,1-1c.72,0,1.45,0,2.17,0a1,1,0,0,1,1,1,1,1,0,0,1-1,1C43.3,52,42.93,52,42.57,52Z"/><path d="M42.56,55.13c-.36,0-.72,0-1.08,0a1,1,0,0,1,0-2.06,21.67,21.67,0,0,1,2.28,0,1,1,0,0,1-.07,2.06c-.36,0-.72,0-1.09,0Z"/></svg>