<svg xmlns="http://www.w3.org/2000/svg" viewBox="0 0 60 60"><path d="M49,29.78,47.55,29l.18-.1L49.18,28a1.14,1.14,0,0,0,0-2,1.35,1.35,0,0,0-.26-.15L47.56,25c.5-.28,1-.57,1.48-.87a1.7,1.7,0,0,0,.74-.94c.19-.75-.47-1.12-.77-1.29l-2.08-1.19L36,14.44a1.46,1.46,0,0,0-1.59,0L19.65,23,11,28a2.78,2.78,0,0,0-.43.31l-.39.3v1l.35.3a2.31,2.31,0,0,0,.44.34l1.48.86-.55.32-1,.57a2.83,2.83,0,0,0-.4.34l-.34.29v1l.56.38c.23.16.46.32.7.46l1,.59L11,35.8a4.71,4.71,0,0,0-.45.33l-.42.31v1l.35.3a2.81,2.81,0,0,0,.45.35l4.78,2.75q4.09,2.35,8.2,4.73a1.59,1.59,0,0,0,1.73,0l11.17-6.46,12.2-7A1.25,1.25,0,0,0,49.82,31,1.31,1.31,0,0,0,49,29.78Zm-9.2.28a1.67,1.67,0,0,1,0-.55,1.56,1.56,0,0,1,.53-.33l.41-.21,1.57-.91,3-1.71c.36.22.73.43,1.1.64l-6.58,3.8v-.24C39.8,30.4,39.79,30.23,39.78,30.06Zm-1.13-2.55a1.71,1.71,0,0,1-.23-.13l3.9-2.25c.83-.47,1-.89.64-1.8a1,1,0,0,1,0-.4,1.16,1.16,0,0,0-.58-1.31l-.5-.29Q39.42,19.91,37,18.51a1.38,1.38,0,0,0-1-.11,3,3,0,0,1-1.86-.07,1.45,1.45,0,0,0-1.31.12l-2.36,1.36L27.82,21.3c-.11-.08-.23-.15-.35-.22l1.4-.81,6.33-3.65q4.39,2.53,8.8,5.06l2.38,1.37-6.29,3.64C39.61,27,39.14,27.25,38.65,27.51Zm-3.59,2.34L25.71,24.5l-2.08-1.2c.52-.3,1-.6,1.55-.88,1.87,1.06,3.74,2.14,5.61,3.21l3,1.7,3.79,2.17q0,3.27,0,6.54c-.51.28-1,.57-1.52.87l-.05,0V36c0-1.52,0-3,0-4.55A1.65,1.65,0,0,0,35.06,29.85Zm1.06-3.79-5.63-3.23-.37-.22,2.37-1.37a.76.76,0,0,0,.19-.12,1.8,1.8,0,0,1,1.76-.39,3,3,0,0,0,1.18,0l.42-.05h.16l2.36,1.35,2.06,1.17a1.69,1.69,0,0,0,0,.23l-2,1.16C37.79,25.11,37,25.59,36.12,26.06Zm-3.85-5.41h0Zm-8.39,5.44,6,3.44-.27.16c-1.05.61-2.1,1.22-3.16,1.81a.32.32,0,0,1-.14,0,6.78,6.78,0,0,0-1.43-.17,4.57,4.57,0,0,0-1.05.12c-1.49-.84-3-1.7-4.45-2.56v0a.88.88,0,0,1,0-.17l.46-.27Zm-6.28,1a1.18,1.18,0,0,0-.58,1.7.71.71,0,0,1,0,.41,1.19,1.19,0,0,0,.59,1.36l.57.33c1.61.92,3.21,1.85,4.83,2.76a1.51,1.51,0,0,0,1.07.11,2.87,2.87,0,0,1,1.83.07,1.48,1.48,0,0,0,1.34-.12l2.34-1.36,2.56-1.48.34.21L24.8,35.52,15.2,30l-1.58-.91,5.82-3.36,1.89-1.1.25.15Zm-2.69,5.39,4.87,2.8L24,37.69a1.5,1.5,0,0,0,1.63,0l7.05-4.08,1-.58c0,.43,0,.86,0,1.29q-4.42,2.58-8.87,5.12Q19.21,36.25,13.63,33c.33-.19.66-.38,1-.59C14.73,32.35,14.73,32.35,14.91,32.46Zm-.17,3.86h0q4.6,2.63,9.19,5.27a1.61,1.61,0,0,0,1.76,0l6.42-3.72,1.57-.9a5.32,5.32,0,0,0,0,.69c.06.43,0,.63-.59,1-2.31,1.28-4.62,2.63-6.85,3.93l-1.48.85-9.68-5.57L13.61,37C14,36.74,14.36,36.52,14.74,36.32Zm25.08-2.89q2.72-1.57,5.44-3.14l1.13.64-6.57,3.79Z"/><path d="M53.87,13.32c0-2.41,0-5.22,0-8A2.73,2.73,0,0,0,53.45,4a1.87,1.87,0,0,0-2.17-.73,2,2,0,0,0-1.42,2c0,.43,0,.85,0,1.31v1.7l-1-.79-.3-.24A28.86,28.86,0,0,0,34.8.92C34.06.8,33.32.71,32.58.62l-1-.13H28c-.28.05-.63.09-1,.13-.74.1-1.48.19-2.21.33A29.52,29.52,0,0,0,.64,27c0,.28-.07.57-.1.86l0,.35v2.18l0,.08a2.41,2.41,0,0,0,.15.33,1.84,1.84,0,0,0,1.83,1.16,1.84,1.84,0,0,0,1.79-1.19,3.19,3.19,0,0,0,.2-1.19,24.87,24.87,0,0,1,5.19-15A24.55,24.55,0,0,1,26,4.81a24.75,24.75,0,0,1,19.8,5.35,1,1,0,0,0,.17.1l.6.34-.54.86H45a13.72,13.72,0,0,0-1.44,0,2,2,0,0,0-1.94,2,2,2,0,0,0,2.12,2h8A2,2,0,0,0,53.87,13.32Z"/><path d="M58.43,37.92a26.45,26.45,0,0,0,1.07-7.84,2,2,0,0,0-4-.27,4.55,4.55,0,0,0,0,.52c0,.22,0,.43,0,.64-.08.54-.14,1.08-.2,1.62a29.34,29.34,0,0,1-.63,3.92A24.87,24.87,0,0,1,45,50.62a24.31,24.31,0,0,1-13.52,4.83A25,25,0,0,1,15.81,51c-.42-.29-.81-.6-1.21-.91l-.84-.66.36-.8h1.1a12.38,12.38,0,0,0,1.62,0,1.92,1.92,0,0,0,1.76-2,2,2,0,0,0-1.89-1.89c-2.71,0-5.52,0-8.36,0a1.89,1.89,0,0,0-1.91,1.82,14,14,0,0,0-.05,1.6v1.79c0,1.6,0,3.21,0,4.81A2.34,2.34,0,0,0,7,56.39a1.9,1.9,0,0,0,1.4.53,2,2,0,0,0,2-2.22V51.94l.81.61.75.59c.5.39.95.75,1.43,1.08a29.37,29.37,0,0,0,12.74,5,27.79,27.79,0,0,0,12.94-1.11A29.18,29.18,0,0,0,58.43,37.92Z"/></svg>