<svg xmlns="http://www.w3.org/2000/svg" viewBox="0 0 60 60"><path d="M55.18,54.48V31.3a1.86,1.86,0,0,0-2.1-2.11H51.29V4.27c0-1.73-.62-2.34-2.37-2.34H30.37c-1.5,0-2.17.67-2.17,2.17V17.54l-6.95-.06H20.13V13.77A1.87,1.87,0,0,0,18,11.66H7.19c-1.74,0-2.36.62-2.36,2.35V54.53H0v3.54H60V54.48ZM10.69,51.63v2.84H8.49V15.32h8V54.48H14.31V51.63Zm37-22.49H43.5V19.7c0-1.54-.67-2.19-2.22-2.19H31.86V5.58h15.8ZM45.75,51.62v2.83H43.54V32.83h8V54.47H49.37V51.62Zm-19.5-.26v3.1H20.16V21.11l19.68,0V54.47H33.76V50.73a1.86,1.86,0,0,0-2.09-2.07H28.93C26.73,48.66,26.25,49.14,26.25,51.36Zm4.41-.23v4.49H29.34V51.13Z"/><path d="M27,33.9H25.18V31H27Z"/><path d="M21.29,26.16h1.87V29H21.29Z"/><path d="M27,29H25.17V26.18H27Z"/><path d="M29.06,26.15h1.88V29H29.06Z"/><path d="M33,29V26.17h1.89V29Z"/><path d="M36.86,26.14h1.86V29H36.86Z"/><path d="M21.29,31h1.87v2.87H21.29Z"/><path d="M29.08,31H31v2.85H29.08Z"/><path d="M34.83,33.89H33V31h1.87Z"/><path d="M38.74,31v2.84H36.86V31Z"/><path d="M23.16,38.76H21.29V35.9h1.87Z"/><path d="M27,38.76H25.17V35.91H27Z"/><path d="M31,38.76H29.08V35.9H31Z"/><path d="M34.83,38.76H33V35.91h1.87Z"/><path d="M38.73,38.76H36.85V35.91h1.88Z"/><path d="M23.14,43.64H21.29V40.77h1.85Z"/><path d="M25.15,43.6V40.78h1.9V43.6Z"/><path d="M29.06,43.62V40.77h1.88v2.85Z"/><path d="M34.83,43.63H33V40.76h1.87Z"/><path d="M38.73,43.62H36.85V40.78h1.88Z"/><path d="M11.48,19.28H9.6V16.43h1.88Z"/><path d="M15.39,16.44v2.82H13.5V16.44Z"/><path d="M11.48,21.3v2.85H9.61V21.3Z"/><path d="M13.48,24.15V21.3h1.89v2.85Z"/><path d="M9.59,29V26.17h1.88V29Z"/><path d="M13.5,26.16h1.87V29H13.5Z"/><path d="M9.59,33.88V31h1.88v2.84Z"/><path d="M15.39,31.05v2.82H13.5V31.05Z"/><path d="M9.59,38.75V35.91h1.88v2.84Z"/><path d="M15.39,35.91v2.83H13.5V35.91Z"/><path d="M9.61,40.74h1.85v2.87H9.61Z"/><path d="M13.49,40.74h1.86v2.87H13.49Z"/><path d="M11.48,48.49H9.6V45.64h1.88Z"/><path d="M15.36,48.49H13.49V45.65h1.87Z"/><path d="M34.83,16.36H33V13.52h1.87Z"/><path d="M36.85,16.35V13.5h1.87v2.85Z"/><path d="M40.76,13.5h1.87v2.84H40.76Z"/><path d="M46.55,13.51v2.83h-1.9V13.51Z"/><path d="M46.53,8.63v2.85H44.65V8.63Z"/><path d="M44.63,21.21V18.38h1.9v2.83Z"/><path d="M44.62,26.09V23.26h1.89v2.83Z"/><path d="M40.76,8.63h1.87v2.86H40.76Z"/><path d="M36.87,8.61h1.85v2.87H36.87Z"/><path d="M34.85,8.64v2.85H33V8.64Z"/><path d="M44.64,35.89h1.88v2.86H44.64Z"/><path d="M48.55,35.89h1.87v2.85H48.55Z"/><path d="M46.53,40.76v2.85H44.65V40.76Z"/><path d="M48.54,40.76h1.87v2.85H48.54Z"/><path d="M46.53,45.63v2.85H44.65V45.63Z"/><path d="M48.53,48.47V45.64h1.89v2.83Z"/></svg>