<svg xmlns="http://www.w3.org/2000/svg" viewBox="0 0 60 60"><path d="M29.53,0h.94l.65.36L58.5,14.1c1.35.68,1.64,1.24,1.41,2.77a13.37,13.37,0,0,1-4,7.32,2.47,2.47,0,0,1-1.31.51,11,11,0,0,1-1.62,0V49.43h.63A3.26,3.26,0,0,1,56.93,51a13.73,13.73,0,0,1,3,6.37A2,2,0,0,1,57.7,60Q30,60,2.37,60A2.25,2.25,0,0,1,0,58.7V57.28s.06-.06.06-.09a13.94,13.94,0,0,1,3.71-7,2.11,2.11,0,0,1,1.81-.79c.48,0,1,0,1.42,0V24.72c-.49,0-.95,0-1.42,0a2.06,2.06,0,0,1-1.84-.83c-.56-.71-1.13-1.39-1.66-2.12A13.07,13.07,0,0,1,0,16.87v-1.4a2.8,2.8,0,0,1,1.25-1.25q9.52-4.77,19-9.56ZM50.7,14.15,50.44,14l-20.08-10a1.12,1.12,0,0,0-.84.06Q19.65,8.9,9.82,13.85l-.5.3ZM3.92,56.42H56.24c-.67-1.05-1.26-2-1.84-2.92a1.2,1.2,0,0,0-1.16-.57c-6.26,0-12.53,0-18.79,0H6.63c-.22,0-.53,0-.65.12A10.57,10.57,0,0,0,3.92,56.42ZM4,17.71l-.15.15c.62,1,1.24,1.91,1.85,2.88a1,1,0,0,0,1,.47q16.25,0,32.5,0H53.38c.22,0,.54,0,.65-.14a10.75,10.75,0,0,0,2-3.34ZM35.3,49.39h7.08V24.76H17.61V49.4H35.3ZM14,24.75H10.6V49.39H14Zm31.92,0V49.38h3.45V24.74Z"/><path d="M35.49,28.56H24.67v2.15h3.81a3.22,3.22,0,0,1,3,2.15H24.67V35h6.85a3.22,3.22,0,0,1-3,2.15H24.67v2.16L31,45.6l1.51-1.52-4.77-4.77h.77A5.38,5.38,0,0,0,33.74,35h1.75V32.86H33.75a5.31,5.31,0,0,0-1-2.15h2.71Z"/></svg>