<svg xmlns="http://www.w3.org/2000/svg" viewBox="0 0 60 60"><path d="M59.92,45.69a2.73,2.73,0,0,0-1.66-1.3L38.19,36.85l1.71-2.76q2.19-3.51,4.37-7a16.81,16.81,0,0,0-6.64-24,16.72,16.72,0,0,0-15.37,0,16.93,16.93,0,0,0-8.49,10.37A16.64,16.64,0,0,0,15.52,26.7c1.43,2.39,2.94,4.8,4.4,7.12l1.89,3L1.54,44.47a2,2,0,0,0,0,3.81Q15.15,53.4,28.75,58.54a3.6,3.6,0,0,0,1.26.24,3.42,3.42,0,0,0,1.27-.25c2-.79,4-1.55,6.09-2.31L40.68,55c.92-.34,1.84-.68,2.75-1l9.44-3.54c1.81-.67,3.68-1.36,5.5-2.09a3.56,3.56,0,0,0,1-.71,3.88,3.88,0,0,1,.31-.26l.3-.24V45.85ZM32,39.53l-2,3.21-3.13-5C24.18,33.45,21.4,29,18.77,24.6a12.74,12.74,0,0,1-.89-11.32A13,13,0,1,1,41,25.05Q36.5,32.3,32,39.53ZM10.77,45.11l13.11-4.94C25,42,26.15,43.83,27.29,45.66l.89,1.44A2.15,2.15,0,0,0,30,48.32a2.17,2.17,0,0,0,1.83-1.24l.76-1.21c1.17-1.88,2.34-3.75,3.54-5.7l13.42,5,3.08,1.16-1.39.52-9.07,3.42-.37.13-2.46.93c-3,1.14-6.08,2.29-9.13,3.41a.72.72,0,0,1-.41,0q-10.93-4.08-21.86-8.2l-.55-.21Z"/><path d="M30,8.73h0a9.4,9.4,0,0,0,0,18.8h0a9.4,9.4,0,0,0,0-18.8Zm5.17,9.4A5.21,5.21,0,1,1,30,12.92,5.22,5.22,0,0,1,35.2,18.13Z"/></svg>