<svg xmlns="http://www.w3.org/2000/svg" viewBox="0 0 60 60"><path d="M18.57,43c0,.9,0,1.81,0,2.72a1.26,1.26,0,0,1-1.31,1.39q-2.31,0-4.62,0a1.23,1.23,0,0,1-1.31-1.35c0-1.84,0-3.69,0-5.54a1.23,1.23,0,0,1,1.34-1.3h4.56a1.25,1.25,0,0,1,1.34,1.36C18.58,41.21,18.57,42.11,18.57,43ZM17,40.51H12.9v5.05H17Z"/><path d="M41.79,43c0-.89,0-1.78,0-2.67a1.26,1.26,0,0,1,1.37-1.42h4.52A1.23,1.23,0,0,1,49,40.23c0,1.86,0,3.73,0,5.59a1.22,1.22,0,0,1-1.3,1.3q-2.31,0-4.62,0a1.25,1.25,0,0,1-1.31-1.38C41.79,44.83,41.79,43.92,41.79,43Zm1.57,2.57c1.31,0,2.61,0,3.9,0,.09,0,.23-.27.23-.41,0-1.21,0-2.43,0-3.64v-1H43.36Z"/><path d="M29.94,13.73m0-1.87"/><path d="M31.94,8.32a4.6,4.6,0,0,1,2.47-.49,2.71,2.71,0,0,1,.06-.38.91.91,0,0,1,1-.66.86.86,0,0,1,.84.8c0,1.17,0,2.34-.08,3.51a4.6,4.6,0,0,1-.36,1.15,1.09,1.09,0,0,1,.47,1.13,17.37,17.37,0,0,1-.11,2,3.63,3.63,0,0,1-3.54,2.9c-.22,0-.44,0-.71,0v1.28a.94.94,0,0,1-.31.78.9.9,0,0,1-.95.18.86.86,0,0,1-.58-.76c0-.34,0-.68,0-1v-.44c-.38,0-.75,0-1.1-.06a3.69,3.69,0,0,1-3.25-3.62c0-.49,0-1,0-1.46a1,1,0,0,1,.5-1c-.78-1.45-.44-3-.48-4.55a.88.88,0,0,1,.93-.89.91.91,0,0,1,.91.88s0,.07,0,.15a4.67,4.67,0,0,1,2.48.51c0-.45,0-.84,0-1.23A.92.92,0,0,1,31.93,7c0,.32,0,.65,0,1C31.94,8.06,31.94,8.16,31.94,8.32ZM30,12.17a2,2,0,0,0-2.42-2.44A2,2,0,0,0,30,12.17Zm1.93,0A2,2,0,0,0,34.4,9.72,2,2,0,0,0,32,12.17ZM27.62,14a2,2,0,0,0,2.43,2.44A2,2,0,0,0,27.62,14ZM32,16.45A2,2,0,0,0,34.39,14,2,2,0,0,0,32,16.45Z"/><path d="M57.92,55.26a2.49,2.49,0,0,0-2.78-2.8H53.7V22.13h.62a3.43,3.43,0,0,0,3.6-3.46c0-1.05,0-2,0-2.94a3.46,3.46,0,0,0-3.55-3.45H44a13,13,0,0,0-26,0H16.07q-5.18,0-10.36,0A3.42,3.42,0,0,0,2.1,15.65c-.05,1.09-.05,2.15,0,3.15a3.41,3.41,0,0,0,3.51,3.32h.75V52.46H4.8A2.47,2.47,0,0,0,2.08,55.2c0,.21,0,.42,0,.63s0,.72,0,1.07a2.86,2.86,0,0,0,1.56,3l.18.1H56.18l.19-.1a2.89,2.89,0,0,0,1.56-3c0-.35,0-.7,0-1S57.93,55.46,57.92,55.26ZM45.54,15.86h8.78c0,.06,0,.14,0,.25v2.13c0,.11,0,.2,0,.26H42.78a12.88,12.88,0,0,0,.92-2.66ZM42.25,31.65a4.1,4.1,0,0,0-3.18-1.44H21.9c-.39,0-.78,0-1.18,0A3.85,3.85,0,0,0,17,33.62a3.79,3.79,0,0,0,2.75,4.13V52.41H10V22.13H21.72a13,13,0,0,0,18.58,0H50V52.4H40.3V37.76A3.68,3.68,0,0,0,43,34.82,3.73,3.73,0,0,0,42.25,31.65Zm-9.81,2.72h-5c-2.18,0-4.37,0-6.56,0-.42,0-.42-.32-.42-.49,0-.41,0-.47.18-.56a1.36,1.36,0,0,1,.54-.06H39.06c.36,0,.35.41.35.58s0,.53-.35.53C36.86,34.37,34.65,34.38,32.44,34.37ZM36.63,38V52.42H31.86V38Zm-8.47,0V52.42h-4.8V38Zm6.33-15.84a9.88,9.88,0,0,1-3.49.65,9.72,9.72,0,0,1-3.43-.63A10.28,10.28,0,0,1,23,18.53a9.55,9.55,0,0,1-1.28-2.65,10.3,10.3,0,0,1-.39-3.61,9.74,9.74,0,0,1,19.42,0,8.78,8.78,0,0,1-.38,3.61,10.06,10.06,0,0,1-1.28,2.66A9.58,9.58,0,0,1,34.49,22.12ZM6,18.53h-.3a2.27,2.27,0,0,1,0-.29v-.54c0-.57,0-1.13,0-1.7a.41.41,0,0,1,0-.12h.07c3.76,0,7.51,0,11.27,0h1.28a13.16,13.16,0,0,0,.91,2.65Zm48.24,38H5.64v-1h9.15q19.73,0,39.45,0C54.24,55.86,54.23,56.21,54.23,56.57Z"/></svg>