<svg xmlns="http://www.w3.org/2000/svg" viewBox="0 0 60 60"><path d="M34.4,8.27a6.84,6.84,0,0,1,3.1,1.46,5.69,5.69,0,0,1,2,5.56A5.65,5.65,0,0,1,35.6,19.8c-.5.18-.7.37-.67.92,0,1,0,1.93,0,2.89a2.47,2.47,0,0,1-.15.9,1.18,1.18,0,0,1-1.27.72,1.16,1.16,0,0,1-1.1-.94,3.11,3.11,0,0,1-.08-.74c0-1,0-2.05,0-3.07a.54.54,0,0,0-.45-.61,5.67,5.67,0,0,1-4.08-4.59,5.57,5.57,0,0,1,2.45-5.9,13.15,13.15,0,0,1,2.63-1.11ZM37,14.21a3.34,3.34,0,1,0-3.34,3.35A3.35,3.35,0,0,0,37,14.21Z"/><path d="M54.72,22.8a22.13,22.13,0,0,0-3.1-1.42l-1-.41c-.26-1.78-.51-3.56-.77-5.35q-.45-3-.87-6.06a5.47,5.47,0,0,0-2.52-4.2A2.51,2.51,0,0,0,45,5l-17-4c-1-.28-2-.5-2.91-.71L23.94,0l-.56.1a5.25,5.25,0,0,0-.71.14A4.85,4.85,0,0,0,19.42,3.9a43.78,43.78,0,0,0-.85,4.58l-6.26,5.59a5.53,5.53,0,0,0-1.22.87,6.38,6.38,0,0,0-1.76,3.73c-.39,2.24-.76,4.49-1.13,6.73L4.36,48.45c-.36,2.1-.71,4.19-1,6.29A4.73,4.73,0,0,0,5.18,59a4.34,4.34,0,0,0,2.69,1,4.12,4.12,0,0,0,1.6-.32c2.18-.88,4.46-1.68,6.66-2.46l2.87-1,5.35-1.93h0a4.53,4.53,0,0,0,5.38,2.83c3.91-.88,7.83-1.73,11.76-2.59l7.35-1.6a5.66,5.66,0,0,0,4.78-5.25q.35-2.46.72-4.92l1-6.87c.43-3,.86-6,1.31-9A3.81,3.81,0,0,0,54.72,22.8Zm-2.18,3.73c-.26,1.65-.5,3.3-.74,4.95L51.14,36q-.81,5.48-1.6,11c-.19,1.35-.43,1.61-1.7,1.89L41,50.39,28.78,53.07c-.36.08-.38,0-.46-.15a10.08,10.08,0,0,1-.49-1.55c-.39-1.67-1.51-1.85-2-1.85a3.76,3.76,0,0,0-1.26.27L12.42,54.18,8.09,55.75a1.64,1.64,0,0,1-.34.09.72.72,0,0,1-.13-.21,1.53,1.53,0,0,1-.12-.82c.25-1.62.53-3.24.8-4.86l5.09-30.5a2.35,2.35,0,0,1,1-1.85l8.19-8,.05-.23c.06-.36.12-.71.17-1.07S22.9,7.41,23,7l.06-.27a13.68,13.68,0,0,1,.61-2.27,1.63,1.63,0,0,0,.08-.19,1.38,1.38,0,0,1,.39.06l.73.16,2,.42L44.11,8.71a2.08,2.08,0,0,1,.78,1.7q0,.33.09.66l1.67,11.49a2.29,2.29,0,0,0,1.65,2c.4.12.79.27,1.18.43l.13.05c.94.39,1.89.78,2.83,1.2C52.53,26.24,52.58,26.27,52.54,26.53Z"/><path d="M19,34c0-.56,0-1.12,0-1.68,0-.39-.14-.53-.48-.64a5.94,5.94,0,0,1-4.13-6.46A5.94,5.94,0,0,1,26,24.37a5.94,5.94,0,0,1-2.83,6.79,2.4,2.4,0,0,1-.78.36c-.73.12-.88.52-.83,1.21.06.94,0,1.89,0,2.84A1.33,1.33,0,0,1,20.27,37,1.34,1.34,0,0,1,19,35.58V34Zm1.29-11.31A3.34,3.34,0,1,0,23.65,26,3.37,3.37,0,0,0,20.29,22.65Z"/><path d="M36.59,43.94c0-.52,0-1,0-1.56s-.15-.63-.57-.76a5.93,5.93,0,0,1-3.72-7.69,5.94,5.94,0,0,1,11.48,1.45,5.91,5.91,0,0,1-4.11,6.25.62.62,0,0,0-.52.73c0,1.06,0,2.12,0,3.19A1.32,1.32,0,0,1,37.88,47c-.76,0-1.27-.56-1.29-1.47C36.58,45,36.59,44.48,36.59,43.94Zm1.27-4.61A3.34,3.34,0,1,0,34.53,36,3.35,3.35,0,0,0,37.86,39.33Z"/><path d="M33.67,12.92a1.31,1.31,0,1,1-1.47,1.3A1.35,1.35,0,0,1,33.67,12.92Z"/><path d="M20.29,27.29A1.31,1.31,0,1,1,21.72,26,1.33,1.33,0,0,1,20.29,27.29Z"/><path d="M39.31,36a1.33,1.33,0,0,1-1.4,1.31,1.31,1.31,0,1,1,0-2.61A1.34,1.34,0,0,1,39.31,36Z"/></svg>