<svg xmlns="http://www.w3.org/2000/svg" xmlns:xlink="http://www.w3.org/1999/xlink" width="389" height="230" viewBox="0 0 389 230">
  <defs>
    <clipPath id="clip-Custom_Size_1">
      <rect width="389" height="230"/>
    </clipPath>
  </defs>
  <g id="Custom_Size_1" data-name="Custom Size – 1" clip-path="url(#clip-Custom_Size_1)">
    <g id="Group_3" data-name="Group 3" transform="translate(10 -6.184)">
      <path id="Path_26" data-name="Path 26" d="M12.648-14.867V-2.3H4.431V-38.78H17.3q13.788,0,13.788,11.626a11.155,11.155,0,0,1-3.956,8.891q-3.956,3.4-10.57,3.4Zm0-17.6V-21.1h3.231q6.563,0,6.563-5.749,0-5.622-6.563-5.622ZM69.815-18.1q0,16.434-15.314,16.434-14.856,0-14.856-16.052V-38.78h8.242v21.165q0,8.853,6.919,8.853,6.792,0,6.792-8.548V-38.78h8.217Zm9.9,14.4V-11.84a15.642,15.642,0,0,0,4.808,2.786,15.455,15.455,0,0,0,5.24.929,11.621,11.621,0,0,0,2.709-.28,6.346,6.346,0,0,0,1.933-.776,3.384,3.384,0,0,0,1.157-1.17,2.92,2.92,0,0,0,.382-1.463,3.162,3.162,0,0,0-.611-1.908,6.57,6.57,0,0,0-1.666-1.552,17.411,17.411,0,0,0-2.506-1.374q-1.45-.661-3.129-1.348a15.97,15.97,0,0,1-6.372-4.35,9.5,9.5,0,0,1-2.1-6.207,9.886,9.886,0,0,1,1.145-4.9,9.722,9.722,0,0,1,3.116-3.371,13.973,13.973,0,0,1,4.566-1.946,23.463,23.463,0,0,1,5.495-.623,33.049,33.049,0,0,1,5.05.343,19.859,19.859,0,0,1,4.058,1.056v7.606a12.269,12.269,0,0,0-2-1.119,15.822,15.822,0,0,0-2.226-.8,16.98,16.98,0,0,0-2.277-.471,16.114,16.114,0,0,0-2.15-.153,11.21,11.21,0,0,0-2.544.267,6.525,6.525,0,0,0-1.933.75,3.734,3.734,0,0,0-1.221,1.157,2.743,2.743,0,0,0-.432,1.514A2.891,2.891,0,0,0,88.7-27.6a5.545,5.545,0,0,0,1.374,1.374,14.578,14.578,0,0,0,2.162,1.272q1.272.623,2.875,1.285a32.033,32.033,0,0,1,3.93,1.946,13.972,13.972,0,0,1,2.989,2.328,9.068,9.068,0,0,1,1.908,2.964,10.472,10.472,0,0,1,.661,3.879,10.392,10.392,0,0,1-1.157,5.126A9.4,9.4,0,0,1,100.3-4.068a13.623,13.623,0,0,1-4.617,1.844,26.684,26.684,0,0,1-5.558.56,30.908,30.908,0,0,1-5.711-.509A17.24,17.24,0,0,1,79.718-3.7Zm66.1,1.4h-8.242V-17.156H122.461V-2.3h-8.217V-38.78h8.217v14.551h15.111V-38.78h8.242Zm20.2-12.567V-2.3H157.8V-38.78h12.872q13.788,0,13.788,11.626a11.155,11.155,0,0,1-3.956,8.891q-3.956,3.4-10.57,3.4Zm0-17.6V-21.1h3.231q6.563,0,6.563-5.749,0-5.622-6.563-5.622ZM216.725-2.3H207.77l-2.595-8.115H192.2L189.632-2.3h-8.9l13.279-36.48h9.743ZM203.293-16.724l-3.918-12.262a15.98,15.98,0,0,1-.611-3.282h-.2a13.914,13.914,0,0,1-.636,3.18l-3.968,12.363ZM255.246-2.3H244.866L234.233-18.149a15.189,15.189,0,0,1-.967-2.01h-.127V-2.3h-8.217V-38.78h8.217v17.248h.127q.305-.712,1.018-2.035L244.358-38.78h9.794l-12.72,17.4Zm9.927.636a4.689,4.689,0,0,1-3.307-1.221,3.926,3.926,0,0,1-1.323-3,3.78,3.78,0,0,1,1.361-3,5.025,5.025,0,0,1,3.4-1.17,4.838,4.838,0,0,1,3.371,1.183,3.854,3.854,0,0,1,1.31,2.989,3.876,3.876,0,0,1-1.336,3.04A5.043,5.043,0,0,1,265.173-1.664ZM312.216-2.3h-8.955l-2.595-8.115H287.693L285.124-2.3h-8.9L289.5-38.78h9.743ZM298.784-16.724l-3.918-12.262a15.977,15.977,0,0,1-.611-3.282h-.2a13.914,13.914,0,0,1-.636,3.18l-3.969,12.363ZM328.631-2.3h-8.217V-38.78h8.217Z" transform="translate(17.569 196.891)" fill="#0360ae"/>
      <g id="Group_1" data-name="Group 1" transform="translate(32.358 211.687)">
        <path id="Path_1" data-name="Path 1" d="M86.286,261.351V248.426H80.34V245.69H94.967v2.736H89.021v12.925Z" transform="translate(-80.34 -245.459)" fill="#010101"/>
        <path id="Path_2" data-name="Path 2" d="M110.8,261.351l-3.964-4.308h-5.859v-2.4H107.5a2.919,2.919,0,0,0,2.24-.808,3.231,3.231,0,0,0,.754-2.337,2.973,2.973,0,0,0-.786-2.273,3.091,3.091,0,0,0-2.154-.743H98.974v12.925H96.26V245.69H107.5a6.625,6.625,0,0,1,2.391.4,4.945,4.945,0,0,1,1.788,1.142,5.041,5.041,0,0,1,1.077,1.8,6.839,6.839,0,0,1,.452,2.38,5.935,5.935,0,0,1-.851,3.231,4.761,4.761,0,0,1-2.38,1.907l4.718,4.761Z" transform="translate(-79.112 -245.46)" fill="#010101"/>
        <path id="Path_3" data-name="Path 3" d="M131.744,261.367l-2.348-3.942h-7.411l1.293-2.219h4.8l-3.49-5.859-7.109,12.021H114.36l9-14.993a2.208,2.208,0,0,1,.56-.646,1.25,1.25,0,0,1,.776-.237,1.2,1.2,0,0,1,.765.237,2.349,2.349,0,0,1,.549.646l9.026,14.993Z" transform="translate(-77.717 -245.475)" fill="#010101"/>
        <path id="Path_4" data-name="Path 4" d="M138.327,249.907v11.46H135.72v-14.25a1.788,1.788,0,0,1,.377-1.2,1.282,1.282,0,0,1,1.077-.442,1.346,1.346,0,0,1,.582.129,2.154,2.154,0,0,1,.582.431l11.051,10.965V245.577H152v14.347a1.8,1.8,0,0,1-.377,1.206,1.228,1.228,0,0,1-.98.431,1.756,1.756,0,0,1-1.249-.582Z" transform="translate(-76.07 -245.476)" fill="#010101"/>
        <path id="Path_5" data-name="Path 5" d="M153.917,261.351v-2.736h11.74a2.359,2.359,0,0,0,1.691-.56,1.95,1.95,0,0,0,.592-1.486,1.863,1.863,0,0,0-.592-1.519,2.553,2.553,0,0,0-1.691-.506h-7.2a5.569,5.569,0,0,1-1.993-.334,4.308,4.308,0,0,1-1.508-.926,4.125,4.125,0,0,1-.948-1.411,4.632,4.632,0,0,1-.334-1.788,4.891,4.891,0,0,1,.312-1.756,3.7,3.7,0,0,1,.926-1.389,4.438,4.438,0,0,1,1.519-.916,5.871,5.871,0,0,1,2.068-.334H169.75v2.736H158.505a2.014,2.014,0,0,0-1.465.506,1.874,1.874,0,0,0-.517,1.411,1.82,1.82,0,0,0,.528,1.4,2,2,0,0,0,1.433.5h7.174a5.267,5.267,0,0,1,3.63,1.077,4.308,4.308,0,0,1,1.239,3.4,5.31,5.31,0,0,1-.3,1.831,3.921,3.921,0,0,1-2.424,2.413,6.171,6.171,0,0,1-2.154.345Z" transform="translate(-74.685 -245.46)" fill="#010101"/>
        <path id="Path_6" data-name="Path 6" d="M172.16,261.351V245.69h13.291v2.736H174.874v12.925Zm4.718-6.463v-2.4h7.928v2.391Z" transform="translate(-73.26 -245.459)" fill="#010101"/>
        <path id="Path_7" data-name="Path 7" d="M194.1,261.351a7.432,7.432,0,0,1-5.439-2.294,7.54,7.54,0,0,1-1.594-2.531,8.746,8.746,0,0,1-.571-3.167,8.423,8.423,0,0,1,.571-3.145,6.98,6.98,0,0,1,1.594-2.423,7.141,7.141,0,0,1,2.413-1.551,8.175,8.175,0,0,1,3.027-.549h3.813a8.294,8.294,0,0,1,3.113.56,6.936,6.936,0,0,1,4,4,8.294,8.294,0,0,1,.56,3.113,8.746,8.746,0,0,1-.571,3.167,7.54,7.54,0,0,1-1.594,2.531,7.411,7.411,0,0,1-2.424,1.68,7.605,7.605,0,0,1-3.081.614Zm3.813-2.736a4.966,4.966,0,0,0,1.982-.388,4.685,4.685,0,0,0,2.585-2.693,5.569,5.569,0,0,0,.366-2.046,5.472,5.472,0,0,0-.366-2.036,4.653,4.653,0,0,0-1.077-1.6,4.739,4.739,0,0,0-1.562-1.077,5.16,5.16,0,0,0-1.982-.377h-3.813a5.03,5.03,0,0,0-1.95.377,4.643,4.643,0,0,0-1.54,1.077,4.857,4.857,0,0,0-1.012,1.594,5.45,5.45,0,0,0-.366,2.047,5.568,5.568,0,0,0,.366,2.046,4.9,4.9,0,0,0,1.012,1.626,4.7,4.7,0,0,0,1.54,1.077,4.848,4.848,0,0,0,1.95.388Z" transform="translate(-72.154 -245.459)" fill="#010101"/>
        <path id="Path_8" data-name="Path 8" d="M221.481,261.351l-3.964-4.308h-5.859v-2.4h6.527a2.919,2.919,0,0,0,2.24-.808,3.231,3.231,0,0,0,.754-2.337,2.973,2.973,0,0,0-.786-2.273,3.091,3.091,0,0,0-2.208-.743h-8.531v12.925H206.94V245.69h11.245a6.625,6.625,0,0,1,2.391.4,4.944,4.944,0,0,1,1.788,1.142,5.041,5.041,0,0,1,1.077,1.8,6.839,6.839,0,0,1,.388,2.37,5.935,5.935,0,0,1-.851,3.231,4.761,4.761,0,0,1-2.38,1.906l4.718,4.761Z" transform="translate(-70.578 -245.46)" fill="#010101"/>
        <path id="Path_9" data-name="Path 9" d="M245.576,261.365l-2.994-11.019-4.438,10.189a2.154,2.154,0,0,1-.571.765,1.26,1.26,0,0,1-.829.269,1.465,1.465,0,0,1-1.4-1.077L230.927,250.3l-2.994,11.008H225.24l4.05-14.681a1.3,1.3,0,0,1,1.357-1.077,1.443,1.443,0,0,1,.808.237,1.508,1.508,0,0,1,.571.689l4.8,11.03,4.825-11.073a1.346,1.346,0,0,1,1.314-.926,1.325,1.325,0,0,1,1.314,1.077l4.007,14.735Z" transform="translate(-69.167 -245.473)" fill="#010101"/>
        <path id="Path_10" data-name="Path 10" d="M249.12,261.351V245.69h2.736v15.661Z" transform="translate(-67.326 -245.459)" fill="#010101"/>
        <path id="Path_11" data-name="Path 11" d="M257.527,249.907v11.46H254.92v-14.25a1.734,1.734,0,0,1,.377-1.2,1.282,1.282,0,0,1,1.077-.442,1.39,1.39,0,0,1,.582.129,2.155,2.155,0,0,1,.582.431l11.051,10.965V245.577h2.574v14.347a1.8,1.8,0,0,1-.377,1.206,1.228,1.228,0,0,1-.98.431,1.734,1.734,0,0,1-1.249-.582Z" transform="translate(-66.879 -245.476)" fill="#010101"/>
        <path id="Path_12" data-name="Path 12" d="M280.284,261.351a7.432,7.432,0,0,1-5.439-2.294,7.54,7.54,0,0,1-1.594-2.531,8.745,8.745,0,0,1-.571-3.167,8.423,8.423,0,0,1,.571-3.145,6.98,6.98,0,0,1,1.594-2.423,7.141,7.141,0,0,1,2.413-1.551,8.175,8.175,0,0,1,3.027-.549h8.488v2.736h-8.488a5,5,0,0,0-1.95.377,4.535,4.535,0,0,0-1.54,1.077,4.684,4.684,0,0,0-1.012,1.594,5.45,5.45,0,0,0-.366,2.047,5.568,5.568,0,0,0,.366,2.047,4.728,4.728,0,0,0,1.013,1.626,4.589,4.589,0,0,0,1.54,1.077,4.816,4.816,0,0,0,1.95.388h6.743v-4.071h-7.109v-2.305h9.823v9.112Z" transform="translate(-65.509 -245.46)" fill="#010101"/>
        <path id="Path_13" data-name="Path 13" d="M298.06,261.351V245.69h9.069a8.133,8.133,0,0,1,3.059.56,7.2,7.2,0,0,1,2.413,1.573,7.541,7.541,0,0,1,1.583,2.424,8.294,8.294,0,0,1,.571,3.113,8.746,8.746,0,0,1-.571,3.167,7.885,7.885,0,0,1-1.583,2.531,7.438,7.438,0,0,1-5.472,2.294Zm9.069-2.736a4.739,4.739,0,0,0,4.524-3.081,5.794,5.794,0,0,0,.366-2.046,5.7,5.7,0,0,0-.366-2.036,4.631,4.631,0,0,0-2.574-2.65,5.073,5.073,0,0,0-1.95-.377h-6.355v10.189Z" transform="translate(-63.552 -245.459)" fill="#010101"/>
        <path id="Path_14" data-name="Path 14" d="M330.764,261.367l-2.348-3.942h-7.411l1.293-2.219h4.8l-3.49-5.859L316.5,261.367H313.38l9-14.993a2.056,2.056,0,0,1,.56-.646,1.25,1.25,0,0,1,.776-.237,1.217,1.217,0,0,1,.765.237,2.349,2.349,0,0,1,.549.646l9.026,14.993Z" transform="translate(-62.371 -245.475)" fill="#010101"/>
        <path id="Path_15" data-name="Path 15" d="M337.306,261.351V248.426H331.36V245.69h14.627v2.736h-5.946v12.925Z" transform="translate(-60.985 -245.459)" fill="#010101"/>
        <path id="Path_16" data-name="Path 16" d="M360.944,261.367l-2.348-3.942h-7.41l1.293-2.219h4.8l-3.49-5.859-7.109,12.021H343.56l9-14.993a2.058,2.058,0,0,1,.56-.646,1.25,1.25,0,0,1,.776-.237,1.217,1.217,0,0,1,.765.237,2.349,2.349,0,0,1,.549.646l9.026,14.993Z" transform="translate(-60.044 -245.475)" fill="#010101"/>
      </g>
      <g id="Group_2" data-name="Group 2" transform="translate(102.037 15.184)">
        <path id="Path_17" data-name="Path 17" d="M200.34,112.679l.179-.1-.028-.066-.151.009Z" transform="translate(-118.42 -6.557)" fill="#0360ae"/>
        <path id="Path_18" data-name="Path 18" d="M200.372,112.563l.217-.141-.085-.132-.254.038v.075Z" transform="translate(-118.415 -6.545)" fill="#0360ae"/>
        <path id="Path_19" data-name="Path 19" d="M199.06,112.306l2.731-1.93-1.921-.075-.188.5-.461.96-.245.2-.075.217Z" transform="translate(-118.336 -6.428)" fill="#0360ae"/>
        <path id="Path_20" data-name="Path 20" d="M247.835,34.692C217.506,32.649,191.2,55.2,189.183,84.965a52.815,52.815,0,0,0,.48,11.478c2.552-.669,6,.254,9.746,2.429a43.907,43.907,0,0,1-1.13-13.3c1.676-24.746,23.634-43.493,48.964-41.789S291.79,67.027,290.123,91.81,266.489,135.3,241.16,133.6a47.024,47.024,0,0,1-10.066-1.8h0l-9.416,6.205a55.555,55.555,0,0,0,18.879,4.708c30.367,2.006,56.628-20.546,58.615-50.3S278.165,36.745,247.835,34.692Z" transform="translate(-137.912 -31.949)" fill="#e67a31"/>
        <path id="Path_21" data-name="Path 21" d="M247.855,31.931a57.965,57.965,0,0,0-41.817,13.823,55.837,55.837,0,0,0-19.077,50.922l.433,2.825,2.825-.734c1.78-.471,4.614.32,7.778,2.156l1.121.65a11,11,0,0,1,3.258-1.309l-.537-2.2a41.374,41.374,0,0,1-1.064-12.5c1.582-23.324,22.288-40.979,46.139-39.369a43.653,43.653,0,0,1,29.793,14.491,41.6,41.6,0,0,1-4.058,59.82,43.662,43.662,0,0,1-31.478,10.358,44.6,44.6,0,0,1-9.5-1.695l-6.394-1.883,2.175,3.578-11.3,7.458,4.36,1.93a58.248,58.248,0,0,0,19.774,4.9c1.346.094,2.693.132,4.03.132a57.787,57.787,0,0,0,37.749-13.992,55.837,55.837,0,0,0,19.614-38.87C303.721,61.177,279.615,34.078,247.855,31.931Zm48.587,60.131a50.7,50.7,0,0,1-17.806,35.263,53.135,53.135,0,0,1-51.487,9.906l4.237-2.825a49.971,49.971,0,0,0,9.416,1.563,48.794,48.794,0,0,0,35.207-11.591,46.807,46.807,0,0,0,4.539-67.165,48.86,48.86,0,0,0-33.324-16.186c-26.751-1.8-49.952,18.032-51.723,44.256a46.564,46.564,0,0,0,.264,9.021,14.877,14.877,0,0,0-4.011-.791,50.574,50.574,0,0,1,17.655-43.757,52.73,52.73,0,0,1,38.1-12.627C276.414,39.087,298.353,63.72,296.442,92.062Z" transform="translate(-137.753 -31.787)" fill="#e67a31"/>
        <circle id="Ellipse_1" data-name="Ellipse 1" cx="12.891" cy="12.891" r="12.891" transform="translate(42.513 47.375)" fill="#e67a31"/>
        <path id="Path_22" data-name="Path 22" d="M247.2,82.626a52.814,52.814,0,0,1,.48,11.478c-2.015,29.764-28.324,52.316-58.653,50.273s-53.408-27.938-51.4-57.7S165.946,34.359,196.275,36.4a55.706,55.706,0,0,1,19.585,4.981c-1.582,2.137-1.742,5.65-.659,9.868A46.619,46.619,0,0,0,195.663,45.5c-25.31-1.7-47.269,17.034-48.964,41.789s17.57,46.28,42.881,48.022,47.269-17.034,48.964-41.789a43.907,43.907,0,0,0-1.13-13.3C241.162,82.371,244.608,83.294,247.2,82.626Z" transform="translate(-134.902 -32.049)" fill="#0360ae"/>
        <path id="Path_23" data-name="Path 23" d="M249.579,82.08l-.433-2.825-2.825.734c-1.77.471-4.614-.32-7.778-2.156l-3.766-2.166a2.374,2.374,0,0,1-.2.235h0l-.414.32h0l-.311.122-.132.056,1.017,4.218A41.544,41.544,0,0,1,221.1,122.136a43.644,43.644,0,0,1-31.469,10.358c-23.889-1.62-42.033-21.9-40.489-45.2s22.288-40.988,46.139-39.369a43.709,43.709,0,0,1,18.456,5.433l.829.461a5.433,5.433,0,0,1,.942-.942,6.422,6.422,0,0,1,2.335-1.469l-.254-.942c-.895-3.465-.81-6.262.226-7.665l1.883-2.58-2.91-1.337a58.38,58.38,0,0,0-20.5-5.217c-31.76-2.137-59.321,21.5-61.431,52.73a55.866,55.866,0,0,0,14.247,41.092,57.871,57.871,0,0,0,39.548,19.322c1.346.085,2.693.132,4.03.132a57.787,57.787,0,0,0,37.787-13.955A55.828,55.828,0,0,0,249.588,82.08Z" transform="translate(-134.74 -31.889)" fill="#0360ae"/>
        <path id="Path_24" data-name="Path 24" d="M192.623,39c-27.307,0-50.4,20.838-52.241,47.975a50.687,50.687,0,0,0,12.9,37.335,53.163,53.163,0,0,0,74.114,5.085,50.564,50.564,0,0,0,17.655-43.757,14.877,14.877,0,0,1-4.011-.791,47.4,47.4,0,0,1,.264,9.03,46.77,46.77,0,0,1-16.544,32.57,48.879,48.879,0,0,1-35.207,11.591c-26.742-1.808-47.081-24.585-45.3-50.772s24.981-46,51.723-44.209A48.823,48.823,0,0,1,212.039,46.9a13.512,13.512,0,0,1,.471-4.021,53.276,53.276,0,0,0-16.271-3.719C195.043,39.075,193.829,39,192.623,39Z" transform="translate(-135.063 -32.208)" fill="#0360ae"/>
        <circle id="Ellipse_2" data-name="Ellipse 2" cx="12.891" cy="12.891" r="12.891" transform="translate(94.697 39.287)" fill="#0360ae"/>
        <path id="Path_25" data-name="Path 25" d="M203.17,49.637S218.3,37.33,221.381,37.17s4.652,9.058,4.652,9.058l-3.927,6.535-4.633,3.192-10.452.669-3.851-6.591Z" transform="translate(-138.736 -32.101)" fill="#e67a31"/>
      </g>
    </g>
  </g>
</svg>
